#N canvas 827 239 527 327 12;
#X obj 10 226 palette/bass.m~;
#X obj 10 124 keyboard 16 80 4 2 0 0 empty empty;
#X msg 10 90 flush;
#X obj 124 354 dac~;
#X connect 0 0 3 0;
#X connect 0 0 3 1;
#X connect 1 0 0 0;
#X connect 2 0 1 0;
