#N canvas 827 239 527 327 12;
#X obj 92 208 keyboard 16 80 3 3 0 0 empty empty;
#X obj 92 132 else/keymap;
#X obj 92 625 else/out~;
#X floatatom 189 134 5 0 0 0 - - - 0;
#X msg 92 100 toggle \$1;
#X obj 92 68 tgl 22 0 empty empty empty 0 -8 0 10 #dfdfdf #000000 #000000 0 1;
#X text 245 25 Using [keymap] to feed [keyboard] and a mono synth.;
#X text 239 55 Note that some hardware keyboards can't correctly handle several simultaneous key presses. This means you can't go crazy with polyphony. One way to deal with this is with the 'toggle' mode \, where a key press turns the note on and a second press is required to turn it off., f 57;
#X msg 37 100 oct \$1;
#X msg 47 73 -1;
#X msg 37 49 1;
#X msg 37 132 flush;
#X obj 213 314 noteout;
#X obj 92 296 t a a a;
#X msg 6 655 set 0.75;
#X obj 6 625 loadbang;
#X obj 270 359 palette/pluck.m~;
#A saved 0.846031 0.219781 0 0.186062 1 1;
#X obj 92 353 palette/plate.rev.m~;
#A saved 50 0.5 0.25 0.904641 0.5;
#N canvas 733 172 450 300 monosynth 0;
#X obj 156 371 *~;
#X obj 156 289 else/mono, f 15;
#X obj 239 316 else/adsr~ 10 10 0.5 50;
#X obj 156 339 else/bl.saw~ -midi;
#X obj 92 256 inlet;
#X obj 156 399 outlet~;
#X connect 0 0 5 0;
#X connect 1 0 3 0;
#X connect 1 1 2 0;
#X connect 2 0 0 1;
#X connect 3 0 0 0;
#X connect 4 0 1 0;
#X restore 92 320 pd monosynth;
#X obj 26 168 notein;
#X connect 0 0 13 0;
#X connect 1 0 0 0;
#X connect 1 1 3 0;
#X connect 4 0 1 0;
#X connect 5 0 4 0;
#X connect 8 0 1 0;
#X connect 9 0 8 0;
#X connect 10 0 8 0;
#X connect 11 0 0 0;
#X connect 13 0 18 0;
#X connect 13 1 16 0;
#X connect 13 2 12 0;
#X connect 14 0 2 0;
#X connect 15 0 14 0;
#X connect 16 0 17 0;
#X connect 17 0 2 0;
#X connect 17 1 2 1;
#X connect 18 0 17 0;
#X connect 19 0 0 0;
#X connect 19 1 0 1;
