#N canvas 827 239 527 327 12;
#X declare -stdpath ./;
#X obj 22 65 adc~;
#X obj 21 622 dac~;
#X obj 90 381 vu 59 160 empty empty -1 -8 0 12 #404040 #000000 1 0;
#N canvas 329 161 625 417 vu 0;
#X obj 59 129 env~ 1024;
#X obj 161 111 abs~;
#X obj 161 213 snapshot~;
#X obj 161 256 rmstodb;
#X obj 161 21 inlet~;
#X obj 161 288 - 100;
#X obj 59 287 - 100;
#X obj 59 361 outlet;
#X obj 161 361 outlet;
#X text 344 307 Check the help file of env~ and slop~ for more details., f 31;
#X obj 239 89 expr 1000 / $f1;
#X floatatom 239 117 5 0 0 0 - - - 0;
#X obj 161 146 slop~ 0 0 0 0 1e+09;
#X obj 239 18 inlet;
#X floatatom 239 57 5 0 0 0 - - - 0;
#X text 359 89 convert to hz;
#X text 282 118 hz;
#X text 284 57 peak decay time in ms;
#X obj 59 171 t f b;
#X text 345 132 The env~ object is dedicated to RMS analysis. Its output is in dB (0-100 range \, pd style) but needs to be converted to dBFS (and we do that by simply subtracting 100)., f 31;
#X text 345 225 The slop~ object is used here for peak detection. We need to convert the output to dB with rmstodb and also subtract by 100 to convert it to dBFS., f 31;
#X connect 0 0 18 0;
#X connect 1 0 12 0;
#X connect 2 0 3 0;
#X connect 3 0 5 0;
#X connect 4 0 0 0;
#X connect 4 0 1 0;
#X connect 5 0 8 0;
#X connect 6 0 7 0;
#X connect 10 0 11 0;
#X connect 11 0 12 3;
#X connect 12 0 2 0;
#X connect 13 0 14 0;
#X connect 14 0 10 0;
#X connect 18 0 6 0;
#X connect 18 1 2 0;
#X restore 82 322 pd vu;
#X obj 100 13 tgl 19 0 empty empty empty 17 7 0 10 #dcdcdc #000000 #000000 0 1;
#X floatatom 131 541 8 0 0 0 - - - 0;
#X floatatom 87 569 8 0 0 0 - - - 0;
#X text 184 539 Peak;
#X text 174 569 RMS;
#X floatatom 560 279 9 0 60000 0 peak_ms decay - 16;
#N canvas 525 219 362 314 noise-burst 0;
#X obj 139 166 *~;
#X obj 121 263 outlet~;
#X obj 139 137 vline~;
#X obj 139 27 inlet;
#X obj 68 110 noise~;
#X msg 139 107 1 \, 0 100;
#X obj 121 194 *~;
#X obj 139 75 metro 500;
#X obj 224 124 loadbang;
#X msg 224 152 \; decay 500 \; pd dsp 1;
#X connect 0 0 6 1;
#X connect 2 0 0 0;
#X connect 2 0 0 1;
#X connect 3 0 7 0;
#X connect 4 0 6 0;
#X connect 5 0 2 0;
#X connect 6 0 1 0;
#X connect 7 0 5 0;
#X connect 8 0 9 0;
#X coords 0 314 1 313 150 60 0;
#X restore 88 49 pd noise-burst;
#X obj 24 746 declare -stdpath ./;
#X text 281 33 <--;
#X text 11 11 turn on --> test sound, f 12;
#X obj 296 379 vu 59 160 empty empty -1 -8 0 12 #404040 #000000 1 0;
#N canvas 329 161 625 417 vu 0;
#X obj 59 129 env~ 1024;
#X obj 161 111 abs~;
#X obj 161 213 snapshot~;
#X obj 161 256 rmstodb;
#X obj 161 21 inlet~;
#X obj 161 288 - 100;
#X obj 59 287 - 100;
#X obj 59 361 outlet;
#X obj 161 361 outlet;
#X text 344 307 Check the help file of env~ and slop~ for more details., f 31;
#X obj 239 89 expr 1000 / $f1;
#X floatatom 239 117 5 0 0 0 - - - 0;
#X obj 161 146 slop~ 0 0 0 0 1e+09;
#X obj 239 18 inlet;
#X floatatom 239 57 5 0 0 0 - - - 0;
#X text 359 89 convert to hz;
#X text 282 118 hz;
#X text 284 57 peak decay time in ms;
#X obj 59 171 t f b;
#X text 345 132 The env~ object is dedicated to RMS analysis. Its output is in dB (0-100 range \, pd style) but needs to be converted to dBFS (and we do that by simply subtracting 100)., f 31;
#X text 345 225 The slop~ object is used here for peak detection. We need to convert the output to dB with rmstodb and also subtract by 100 to convert it to dBFS., f 31;
#X connect 0 0 18 0;
#X connect 1 0 12 0;
#X connect 2 0 3 0;
#X connect 3 0 5 0;
#X connect 4 0 0 0;
#X connect 4 0 1 0;
#X connect 5 0 8 0;
#X connect 6 0 7 0;
#X connect 10 0 11 0;
#X connect 11 0 12 3;
#X connect 12 0 2 0;
#X connect 13 0 14 0;
#X connect 14 0 10 0;
#X connect 18 0 6 0;
#X connect 18 1 2 0;
#X restore 290 320 pd vu;
#X floatatom 313 538 8 0 0 0 - - - 0;
#X floatatom 281 569 8 0 0 0 - - - 0;
#X text 375 537 Peak;
#X text 365 567 RMS;
#X text 360 312 <-- open for analysis;
#X obj 85 674 scale -100 0 0 127;
#X obj 131 610 scale -100 0 0 127;
#X obj 281 674 scale -100 0 0 127;
#X obj 313 610 scale -100 0 0 127;
#X obj 85 704 ctlout 0 1;
#X obj 131 641 ctlout 1 1;
#X obj 281 704 ctlout 2 1;
#X obj 313 641 ctlout 3 1;
#X obj 290 168 palette/eq.m~;
#X obj 243 123 +~;
#X obj 80 144 +~;
#X obj 80 168 palette/eq.m~;
#X obj 375 373 scope~ 121 160 256 3 128 -1 1 0 0 0 0 77 77 77 228 228 228 168 168 168 0 empty;
#X obj 157 377 scope~ 121 160 256 3 128 -1 1 0 0 0 0 77 77 77 228 228 228 168 168 168 0 empty;
#X floatatom 534 514 3 0 0 0 - - - 24;
#X floatatom 574 492 7 0 0 0 - - - 0;
#X floatatom 615 469 5 0 0 0 - - - 0;
#X floatatom 666 514 5 0 0 0 - - - 24;
#X floatatom 706 492 7 0 0 0 - - - 0;
#X floatatom 747 469 5 0 0 0 - - - 0;
#X obj 534 422 unpack f f f;
#X obj 666 422 unpack f f f;
#X text 747 513 frequency (Hz.);
#X text 765 491 peak amplitude (linear);
#X text 808 470 flag;
#X obj 646 469 tgl 25 0 empty empty empty 17 7 0 10 #e4e4e4 #4d4d4d #373737 0 1;
#X obj 774 464 tgl 25 0 empty empty empty 17 7 0 10 #e4e4e4 #4d4d4d #373737 0 1;
#X obj 534 358 sigmund~ -npts 16384 -hop 8192 -npeak 4 tracks;
#X obj 534 385 route 0 1 2 3, f 22;
#X floatatom 908 523 5 0 0 0 - - - 24;
#X floatatom 948 501 7 0 0 0 - - - 0;
#X floatatom 989 478 5 0 0 0 - - - 0;
#X obj 908 431 unpack f f f;
#X text 989 522 frequency (Hz.);
#X text 1007 500 peak amplitude (linear);
#X text 1050 479 flag;
#X obj 1016 473 tgl 25 0 empty empty empty 17 7 0 10 #e4e4e4 #4d4d4d #373737 0 1;
#X connect 0 0 1 0;
#X connect 0 0 31 0;
#X connect 0 1 1 1;
#X connect 0 1 30 0;
#X connect 2 0 6 0;
#X connect 2 1 5 0;
#X connect 3 0 2 0;
#X connect 3 1 2 1;
#X connect 4 0 10 0;
#X connect 5 0 22 0;
#X connect 6 0 21 0;
#X connect 9 0 3 1;
#X connect 9 0 15 1;
#X connect 10 0 30 1;
#X connect 10 0 31 1;
#X connect 14 0 17 0;
#X connect 14 1 16 0;
#X connect 15 0 14 0;
#X connect 15 1 14 1;
#X connect 16 0 24 0;
#X connect 17 0 23 0;
#X connect 21 0 25 0;
#X connect 22 0 26 0;
#X connect 23 0 27 0;
#X connect 24 0 28 0;
#X connect 29 0 15 0;
#X connect 29 0 33 0;
#X connect 29 0 48 0;
#X connect 30 0 29 0;
#X connect 31 0 32 0;
#X connect 32 0 3 0;
#X connect 32 0 34 0;
#X connect 37 0 46 0;
#X connect 40 0 47 0;
#X connect 41 0 35 0;
#X connect 41 1 36 0;
#X connect 41 2 37 0;
#X connect 42 0 38 0;
#X connect 42 1 39 0;
#X connect 42 2 40 0;
#X connect 48 0 49 0;
#X connect 49 0 41 0;
#X connect 49 1 42 0;
#X connect 49 2 53 0;
#X connect 52 0 57 0;
#X connect 53 0 50 0;
#X connect 53 1 51 0;
#X connect 53 2 52 0;
