#N canvas 827 239 527 327 12;
#X obj 86 48 inlet;
#X obj 88 495 outlet;
#X floatatom 86 251 5 0 0 0 - - \$2_\$1_freq 24;
#X floatatom 113 205 5 0 0 0 - - \$2_\$1_peak 16;
#X floatatom 167 141 5 0 0 0 - - - 0;
#X obj 86 94 unpack f f f;
#X text 167 249 frequency (Hz.);
#X text 172 203 peak amplitude (linear);
#X text 201 174 flag;
#X obj 167 168 tgl 25 0 \$2_\$1_flag empty empty 17 7 0 10 #e4e4e4 #4d4d4d #373737 0 1;
#X obj 93 441 list prepend \$0_\$1;
#X obj 80 398 list prepend freq;
#X obj 208 398 list prepend peak;
#X obj 344 398 list prepend flag;
#X obj 86 348 r \$2_\$1_freq;
#X obj 184 348 r \$2_\$1_peak;
#X obj 294 348 r \$2_\$1_flag;
#X connect 0 0 5 0;
#X connect 4 0 9 0;
#X connect 5 0 2 0;
#X connect 5 1 3 0;
#X connect 5 2 4 0;
#X connect 10 0 1 0;
#X connect 11 0 10 0;
#X connect 12 0 10 0;
#X connect 13 0 10 0;
#X connect 14 0 11 0;
#X connect 15 0 12 0;
#X connect 16 0 13 0;
